<svg id="Layer_1" data-name="Layer 1" xmlns="http://www.w3.org/2000/svg" viewBox="0 0 1080 1080"><defs><style>.cls-1{fill:#47241c;}.cls-2{fill:#ff7335;}.cls-3{fill:#1b1b1b;}.cls-4{fill:#3e3937;}.cls-5{fill:#2c2726;}.cls-6{fill:#222020;}</style></defs><g id="_13" data-name="13"><polygon class="cls-1" points="455.97 151.79 432.56 178.47 433.43 333.56 781.45 337.64 839.82 329.22 456.85 325 455.97 151.79"/><polygon class="cls-2" points="455.97 151.79 456.85 325 839.82 329.22 842.43 166.08 455.97 151.79"/><polygon class="cls-3" points="275.72 450.06 277.43 570.82 282.05 897.62 288.21 946.65 281.67 454.11 275.72 450.06"/><polygon class="cls-4" points="646.91 451.65 608.32 448.63 432.78 449.38 275.72 450.06 281.67 454.11 646.91 451.65"/><polygon class="cls-5" points="646.91 451.65 281.67 454.11 288.21 946.65 456.63 934.59 455.02 582.82 646.19 578.46 646.91 451.65"/><polygon class="cls-6" points="619.55 449.51 440.67 450.89 440.67 449.35 608.32 448.63 619.55 449.51"/></g></svg>