<svg id="Layer_1" data-name="Layer 1" xmlns="http://www.w3.org/2000/svg" viewBox="0 0 1080 1080"><defs><style>.cls-1{fill:#4b241a;}.cls-2{fill:#ff7234;}.cls-3{fill:#3b3634;}.cls-4{fill:#2b2625;}.cls-5{fill:#1a1a1a;}.cls-6{fill:#1c1c1c;}</style></defs><g id="_15" data-name="15"><polygon class="cls-1" points="456.16 152.04 425.01 175.56 426.18 331.4 768.51 334.81 832.24 329.25 457.44 325.44 456.16 152.04"/><polygon class="cls-2" points="456.16 152.04 457.44 325.44 832.24 329.25 835.36 167.57 456.16 152.04"/><polygon class="cls-3" points="644.09 451.24 599.33 445.74 425.95 447.46 269.16 449.02 282.83 455.78 644.09 451.24"/><polygon class="cls-4" points="644.09 451.24 282.83 455.78 290.83 947.15 457.39 931.58 455.42 583.13 643.21 576.86 644.09 451.24"/><polygon class="cls-5" points="269.16 449.02 271.34 570.18 277.19 896.11 290.83 947.15 282.83 455.78 269.16 449.02"/><polygon class="cls-6" points="429.3 447.43 440.41 450 616.75 447.88 599.33 445.74 429.3 447.43"/></g></svg>