<svg id="Layer_1" data-name="Layer 1" xmlns="http://www.w3.org/2000/svg" viewBox="0 0 1080 1080"><defs><style>.cls-1{fill:#4a2219;}.cls-2{fill:#ff7232;}.cls-3{fill:#33302e;}.cls-4{fill:#292524;}.cls-5{fill:#1a1a1a;}.cls-6{fill:#1b1b1b;}</style></defs><g id="_17" data-name="17"><polygon class="cls-1" points="456.59 152.65 418.01 172.97 419.48 329.14 755.03 331.31 823.48 328.4 457.78 325.89 456.59 152.65"/><polygon class="cls-2" points="456.59 152.65 457.78 325.89 823.48 328.4 827.03 168.54 456.59 152.65"/><polygon class="cls-3" points="640.7 449.95 590.27 442.19 419.69 445.13 263.86 447.82 284.94 457.17 640.7 449.95"/><polygon class="cls-4" points="640.7 449.95 284.94 457.17 294.52 945.79 458.38 926.68 456.08 582.47 639.71 574.08 640.7 449.95"/><polygon class="cls-5" points="263.86 447.82 266.5 569.03 273.58 893.27 294.52 945.79 284.94 457.17 263.86 447.82"/><polygon class="cls-6" points="423.15 445.07 435.89 448.33 611.59 445.47 590.27 442.19 423.15 445.07"/></g></svg>