<svg id="Layer_1" data-name="Layer 1" xmlns="http://www.w3.org/2000/svg" viewBox="0 0 1080 1080"><defs><style>.cls-1{fill:#4b2218;}.cls-2{fill:#ff7030;}.cls-3{fill:#2f2c2b;}.cls-4{fill:#181818;}.cls-5{fill:#262222;}.cls-6{fill:#1a1a1a;}</style></defs><g id="_20" data-name="20"><polygon class="cls-1" points="407.39 169.58 409.33 325.56 457.13 326.03 455.77 153.72 407.39 169.58"/><polygon class="cls-2" points="455.77 153.72 457.13 326.03 807.91 325.58 811.92 168.8 455.77 153.72"/><polygon class="cls-3" points="633.44 446.52 575.93 436.02 410.18 441 256.75 445.61 287.56 459 633.44 446.52"/><polygon class="cls-4" points="256.75 445.61 260.05 566.38 268.79 886.97 299.48 940.72 287.56 459 256.75 445.61"/><polygon class="cls-5" points="633.44 446.52 287.56 459 299.48 940.72 458.4 916.74 455.62 579.73 632.35 568.15 633.44 446.52"/><polygon class="cls-6" points="598.11 440.07 431.37 446.52 411.38 440.97 575.93 436.02 598.11 440.07"/></g></svg>