<svg id="Layer_1" data-name="Layer 1" xmlns="http://www.w3.org/2000/svg" viewBox="0 0 1080 1080"><defs><style>.cls-1{fill:#4b2117;}.cls-2{fill:#ff702f;}.cls-3{fill:#2b2927;}.cls-4{fill:#242020;}.cls-5{fill:#181818;}.cls-6{fill:#1a1a1a;}</style></defs><g id="_24" data-name="24"><polygon class="cls-1" points="395.55 167.07 398.01 322.15 454.66 326.14 453.02 155.56 395.55 167.07"/><polygon class="cls-2" points="453.02 155.56 454.66 326.14 788.59 321.67 792.86 168.48 453.02 155.56"/><polygon class="cls-3" points="623.21 441.97 559.52 429.21 399.54 436.56 249.66 443.44 290.78 459.59 623.21 441.97"/><polygon class="cls-4" points="623.21 441.97 290.78 459.59 303.91 932.83 456.64 904.15 453.35 575.62 622.09 560.67 623.21 441.97"/><polygon class="cls-5" points="249.66 443.44 253.61 563.2 264.02 878.8 303.91 932.83 290.78 459.59 249.66 443.44"/><polygon class="cls-6" points="585 434.32 424.78 442.78 403.99 436.35 559.52 429.21 585 434.32"/></g></svg>