<svg width="373" height="101" viewBox="0 0 373 101" fill="none" xmlns="http://www.w3.org/2000/svg">
<path d="M0.5 22.999V100.18H20.21V69.017H50.11V54.065H20.21V37.659H56.91V22.999H0.5Z" fill="black"/>
<mask id="mask0_55_2578" style="mask-type:luminance" maskUnits="userSpaceOnUse" x="0" y="0" width="373" height="101">
<path d="M372.973 0.960938H0.5V100.578H372.973V0.960938Z" fill="white"/>
</mask>
<g mask="url(#mask0_55_2578)">
<path d="M329.981 45.861C327.964 41.2915 325.06 37.1673 321.439 33.727C317.8 30.2991 313.53 27.6113 308.865 25.813C303.975 23.9186 298.771 22.9639 293.527 22.999H262.56V100.18H293.527C298.776 100.215 303.983 99.2425 308.865 97.316C313.526 95.4888 317.795 92.7858 321.439 89.353C325.077 85.8898 327.982 81.7308 329.981 77.123C332.123 72.1765 333.198 66.834 333.136 61.444C333.205 56.0844 332.129 50.7717 329.981 45.861ZM311.144 70.277C310.183 73.0384 308.786 75.6277 307.004 77.946C305.331 80.1395 303.248 81.9862 300.869 83.383C298.63 84.7155 296.074 85.4205 293.469 85.424H282.269V37.755H293.469C296.01 37.7577 298.507 38.41 300.725 39.65C303.072 40.9478 305.139 42.6955 306.81 44.793C308.623 47.0711 310.054 49.6287 311.047 52.366C312.123 55.2711 312.667 58.3461 312.654 61.444C312.66 64.4528 312.15 67.4404 311.146 70.277" fill="black"/>
<path d="M372.973 0.960938H338.371V17.9169H372.973V0.960938Z" fill="white"/>
<path d="M372.973 0.960938H338.371V17.9169H372.973V0.960938Z" fill="#FE5E00"/>
<path d="M147.637 100.581H129.714L121.533 80.367L113.349 100.581H95.263L63.986 23.325H81.506L104.306 78.9169L112.68 58.503L98.436 23.325H115.949L147.637 100.581Z" fill="black"/>
<path d="M144.612 23.1179L131.189 56.2739L122.819 35.8739L123.757 33.5839L128.047 23.1239L144.612 23.1179Z" fill="#FE5E00"/>
<path d="M179.083 23.197L148.409 98.968L139.522 77.306L161.712 23.197H179.083Z" fill="black"/>
<path d="M235.181 72.7048C239.723 70.6592 243.599 67.3798 246.369 63.2398C249.176 59.0691 250.646 54.1419 250.582 49.1148C250.614 45.5858 249.938 42.0862 248.594 38.8228C247.305 35.704 245.372 32.8923 242.922 30.5718C240.353 28.169 237.34 26.2897 234.052 25.0388C230.386 23.6413 226.489 22.9491 222.566 22.9988H185.246V100.18H205.536V75.2278H216.677L233.047 100.18H255.436L235.181 72.7048ZM230.147 53.4838C229.68 54.9331 228.975 56.2944 228.06 57.5118C227.169 58.6929 226.066 59.6968 224.806 60.4718C223.537 61.2518 222.073 61.6564 220.583 61.6388H205.536V36.8818H219.806C221.287 36.8805 222.743 37.2659 224.029 37.9998C225.363 38.7486 226.562 39.7168 227.574 40.8638C228.606 42.022 229.427 43.3517 230.001 44.7928C230.566 46.1644 230.862 47.6316 230.874 49.1148C230.864 50.6005 230.619 52.0752 230.147 53.4838Z" fill="black"/>
</g>
</svg>
