<svg id="Layer_1" data-name="Layer 1" xmlns="http://www.w3.org/2000/svg" viewBox="0 0 1080 1080"><defs><style>.cls-1{fill:#4b241a;}.cls-2{fill:#ff7334;}.cls-3{fill:#3b3634;}.cls-4{fill:#2b2725;}.cls-5{fill:#1a1a1a;}.cls-6{fill:#1c1c1c;}</style></defs><g id="_14" data-name="14"><polygon class="cls-1" points="455.78 151.81 428.49 176.93 429.51 332.44 774.85 336.27 835.96 329.3 456.85 325 455.78 151.81"/><polygon class="cls-2" points="455.78 151.81 456.85 325 835.96 329.3 838.84 166.82 455.78 151.81"/><polygon class="cls-3" points="645.34 451.5 603.61 447.22 429.07 448.42 272.05 449.5 282 454.96 645.34 451.5"/><polygon class="cls-4" points="645.34 451.5 282 454.96 289.12 947.08 456.73 933.28 454.94 583.04 644.53 577.76 645.34 451.5"/><polygon class="cls-5" points="272.05 449.5 273.99 570.51 279.23 896.99 289.12 947.08 282 454.96 272.05 449.5"/><polygon class="cls-6" points="437.89 448.36 440.41 450.48 617.08 448.6 603.61 447.22 437.89 448.36"/></g></svg>