<svg id="Layer_1" data-name="Layer 1" xmlns="http://www.w3.org/2000/svg" viewBox="0 0 1080 1080"><defs><style>.cls-1{fill:#4b2319;}.cls-2{fill:#ff7234;}.cls-3{fill:#1a1a1a;}.cls-4{fill:#363231;}.cls-5{fill:#292524;}</style></defs><g id="_16" data-name="16"><polygon class="cls-1" points="456.07 151.81 421.15 173.72 422.47 329.78 761.51 332.63 827.7 328.43 457.11 325.44 456.07 151.81"/><polygon class="cls-2" points="456.07 151.81 457.11 325.44 827.7 328.43 831.04 167.62 456.07 151.81"/><polygon class="cls-3" points="266.07 447.94 268.48 569.17 274.95 894.35 292.29 946.2 283.89 456.33 266.07 447.94"/><polygon class="cls-4" points="642.17 450.2 594.5 443.53 422.46 445.84 266.07 447.94 283.89 456.33 642.17 450.2"/><polygon class="cls-5" points="642.17 450.2 283.89 456.33 292.29 946.2 457.59 928.84 455.45 582.42 641.24 575.1 642.17 450.2"/><polygon class="cls-3" points="424.78 445.81 436.22 448.83 616.53 446.61 594.5 443.53 424.78 445.81"/></g></svg>