<svg id="Layer_1" data-name="Layer 1" xmlns="http://www.w3.org/2000/svg" viewBox="0 0 1080 1080"><defs><style>.cls-1{fill:#4b2219;}.cls-2{fill:#ff7232;}.cls-3{fill:#322f2d;}.cls-4{fill:#1a1a1a;}.cls-5{fill:#272422;}</style></defs><g id="_18" data-name="18"><polygon class="cls-1" points="456.38 152.62 414.31 171.38 415.94 327.56 747.85 328.95 818.37 327.24 457.15 326.26 456.38 152.62"/><polygon class="cls-2" points="456.38 152.62 457.15 326.26 818.37 327.24 822.1 168.39 456.38 152.62"/><polygon class="cls-3" points="638.38 448.58 585.38 439.81 416.37 443.42 261.24 446.74 286.11 458.22 638.38 448.58"/><polygon class="cls-4" points="261.24 446.74 264.11 567.86 271.77 890.99 296.16 944.05 286.11 458.22 261.24 446.74"/><polygon class="cls-5" points="638.38 448.58 286.11 458.22 296.16 944.05 458.45 923.23 455.99 581.36 637.35 571.89 638.38 448.58"/><polygon class="cls-4" points="419.45 443.36 434.11 447.67 608.02 443.56 585.38 439.81 419.45 443.36"/></g></svg>