<svg id="Layer_1" data-name="Layer 1" xmlns="http://www.w3.org/2000/svg" viewBox="0 0 1080 1080"><defs><style>.cls-1{fill:#4b2218;}.cls-2{fill:#ff7131;}.cls-3{fill:#312d2c;}.cls-4{fill:#191919;}.cls-5{fill:#262222;}.cls-6{fill:#1a1a1a;}</style></defs><g id="_19" data-name="19"><polygon class="cls-1" points="456.49 153.59 411.15 170.85 412.93 326.96 741.15 327.49 813.53 326.89 457.17 326.11 456.49 153.59"/><polygon class="cls-2" points="456.49 153.59 457.17 326.11 813.53 326.89 817.41 169.08 456.49 153.59"/><polygon class="cls-3" points="636.33 448.02 580.97 438.35 413.58 442.64 259.26 446.6 286.48 458.11 636.33 448.02"/><polygon class="cls-4" points="259.26 446.6 262.35 567.57 270.57 889.47 298.22 942.93 286.48 458.11 259.26 446.6"/><polygon class="cls-5" points="636.33 448.02 286.48 458.11 298.22 942.93 458.85 920.48 456.23 581.04 635.26 570.5 636.33 448.02"/><polygon class="cls-6" points="419.37 442.49 432.11 446.93 603.38 442.26 580.97 438.35 419.37 442.49"/></g></svg>