<svg id="Layer_1" data-name="Layer 1" xmlns="http://www.w3.org/2000/svg" viewBox="0 0 1080 1080"><defs><style>.cls-1{fill:#4b2218;}.cls-2{fill:#ff7130;}.cls-3{fill:#262220;}.cls-4{fill:#2e2b2a;}.cls-5{fill:#181818;}.cls-6{fill:#1a1a1a;}</style></defs><g id="_21" data-name="21"><polygon class="cls-1" points="403.98 169.21 406.07 324.99 456.54 326.53 455.11 154.64 403.98 169.21"/><polygon class="cls-2" points="455.11 154.64 456.54 326.53 802.55 324.99 806.65 169.22 455.11 154.64"/><polygon class="cls-3" points="630.68 445.75 288.56 459.11 300.79 939.13 458 913.75 455.09 579.11 629.56 566.56 630.68 445.75"/><polygon class="cls-4" points="630.68 445.75 571.26 434.53 407.11 440.18 254.61 445.42 288.56 459.11 630.68 445.75"/><polygon class="cls-5" points="254.61 445.42 258.1 565.95 267.33 885.21 300.79 939.13 288.56 459.11 254.61 445.42"/><polygon class="cls-6" points="411.52 440.03 428.26 445 594.97 439.01 571.26 434.53 411.52 440.03"/></g></svg>