<svg id="Layer_1" data-name="Layer 1" xmlns="http://www.w3.org/2000/svg" viewBox="0 0 1080 1080"><defs><style>.cls-1{fill:#4a2117;}.cls-2{fill:#ff7030;}.cls-3{fill:#2c2928;}.cls-4{fill:#252220;}.cls-5{fill:#181818;}.cls-6{fill:#1a1a1a;}</style></defs><g id="_23" data-name="23"><polygon class="cls-1" points="397.65 167.33 400.01 322.64 454.93 325.95 453.35 154.95 397.65 167.33"/><polygon class="cls-2" points="453.35 154.95 454.93 325.95 792.4 322.36 796.63 168.4 453.35 154.95"/><polygon class="cls-3" points="625.12 442.79 562.61 430.45 401.4 437.3 250.71 443.69 289.67 459 625.12 442.79"/><polygon class="cls-4" points="625.12 442.79 289.67 459 302.68 934.45 456.75 906.71 453.58 576.37 624 562.12 625.12 442.79"/><polygon class="cls-5" points="250.71 443.69 254.53 563.7 264.6 880.41 302.68 934.45 289.67 459 250.71 443.69"/><polyline class="cls-6" points="587.29 435.32 424.7 442.79 403.44 437.21 562.61 430.45"/></g></svg>