<svg id="Layer_1" data-name="Layer 1" xmlns="http://www.w3.org/2000/svg" viewBox="0 0 1080 1080"><defs><style>.cls-1{fill:#4a2016;}.cls-2{fill:#ff6f2d;}.cls-3{fill:#2b2928;}.cls-4{fill:#23201f;}.cls-5{fill:#181818;}.cls-6{fill:#1a1a1a;}</style></defs><g id="_25" data-name="25"><polygon class="cls-1" points="393.62 166.58 396.18 321.46 454.2 325.99 452.52 155.77 393.62 166.58"/><polygon class="cls-2" points="452.52 155.77 454.2 325.99 785.23 320.77 789.52 168.21 452.52 155.77"/><polygon class="cls-3" points="621.39 440.97 556.78 427.88 397.83 435.65 248.63 442.93 290.67 459.11 621.39 440.97"/><polygon class="cls-4" points="621.39 440.97 290.67 459.11 304.7 931.12 456.32 901.7 452.94 574.67 620.28 559.16 621.39 440.97"/><polygon class="cls-5" points="248.63 442.93 252.68 562.47 263.37 877.14 304.7 931.12 290.67 459.11 248.63 442.93"/><polygon class="cls-6" points="583.09 433.21 420.11 440.97 400.34 435.52 556.78 427.88 583.09 433.21"/></g></svg>