<svg id="Layer_1" data-name="Layer 1" xmlns="http://www.w3.org/2000/svg" viewBox="0 0 1080 1080"><defs><style>.cls-1{fill:#4a2016;}.cls-2{fill:#ff7130;}.cls-3{fill:#2b2827;}.cls-4{fill:#181818;}.cls-5{fill:#232020;}.cls-6{fill:#1a1a1a;}</style></defs><g id="_27" data-name="27"><polygon class="cls-1" points="390.55 165.74 393.23 320.34 452.87 325.5 451.13 155.75 390.55 165.74"/><polygon class="cls-2" points="451.13 155.75 452.87 325.5 780.36 319.38 784.67 167.59 451.13 155.75"/><polygon class="cls-3" points="618.4 439.44 552.69 425.99 395.01 434.26 246.67 442.04 290.78 459.22 618.4 439.44"/><polygon class="cls-4" points="246.67 442.04 250.86 561.3 261.87 874.8 304.93 928.69 290.78 459.22 246.67 442.04"/><polygon class="cls-5" points="618.4 439.44 290.78 459.22 304.93 928.69 455.16 898.38 451.67 573.19 617.29 557 618.4 439.44"/><polygon class="cls-6" points="577.95 431.16 419.89 440.78 397.9 434.11 552.69 425.99 577.95 431.16"/></g></svg>