<svg xmlns="http://www.w3.org/2000/svg" viewBox="0 0 1080 1080"><defs><style>.cls-1{fill:#f16037;}.cls-2{fill:#40231f;}.cls-3{fill:#2a2624;}.cls-4{fill:#47231d;}.cls-5{fill:#312e2c;}.cls-6{fill:#202020;}.cls-7{fill:#1e1e1e;}</style></defs><g id="F6"><g id="_8" data-name="8"><polygon class="cls-1" points="456.85 156.11 831.82 168.7 828.57 328.48 458.39 326.44 456.85 156.11"/><polygon class="cls-2" points="458.39 326.44 828.57 328.48 773.3 331.67 428.89 329.83 458.39 326.44"/><polygon class="cls-3" points="286.67 454.96 641.92 450.03 641.07 573.04 456.89 579.94 459 920.82 295.89 935.44 286.67 454.96"/><polygon class="cls-4" points="428.89 329.83 458.39 326.44 456.85 156.11 427 176.11 428.89 329.83"/><polygon class="cls-5" points="641.92 450.03 600.85 442.93 274.19 447.19 286.67 454.96 641.92 450.03"/><polygon class="cls-6" points="286.67 454.96 274.19 447.19 283.11 885.78 295.89 935.44 286.67 454.96"/><polygon class="cls-7" points="612.53 444.94 442.11 448.94 433.44 445.11 600.85 442.93 612.53 444.94"/></g></g></svg>