<svg xmlns="http://www.w3.org/2000/svg" viewBox="0 0 1080 1080"><defs><style>.cls-1{fill:#f16037;}.cls-2{fill:#664d4a;}.cls-3{fill:#282423;}.cls-4{fill:#47221c;}.cls-5{fill:#302d2c;}.cls-6{fill:#1e1e1e;}.cls-7{fill:#1d1b1b;}</style></defs><g id="F6"><g id="_9" data-name="9"><polygon class="cls-1" points="456.19 156.11 824.78 169.15 821 327.67 457.17 326.72 456.19 156.11"/><polygon class="cls-2" points="457.17 326.72 821 327.67 763.33 328.56 423.11 327.89 457.17 326.72"/><polygon class="cls-3" points="287.52 456.04 638.59 448.58 637.83 569.94 455.97 577.94 459 914.78 297.78 932.22 287.52 456.04"/><polygon class="cls-4" points="423.11 327.89 457.17 326.72 456.19 156.11 421.37 174.04 423.11 327.89"/><polygon class="cls-5" points="638.59 448.58 591.82 439.22 270 445.26 287.52 456.04 638.59 448.58"/><polygon class="cls-6" points="287.52 456.04 270 445.26 280.33 881.67 297.78 932.22 287.52 456.04"/><polygon class="cls-7" points="608.84 442.63 439.15 446.04 428.48 442.29 591.82 439.22 608.84 442.63"/></g></g></svg>