<svg xmlns="http://www.w3.org/2000/svg" viewBox="0 0 1080 1080"><defs><style>.cls-1{fill:none;stroke:#68cbdd;stroke-miterlimit:10;stroke-width:0.25px;}.cls-2{fill:#f15f36;}.cls-3{fill:#46231b;}.cls-4{fill:#282523;}.cls-5{fill:#2f2c2a;}.cls-6{fill:#1e1e1e;}.cls-7{fill:#1d1b1b;}</style></defs><g id="F6"><g id="_10" data-name="10"><polygon class="cls-1" points="455.19 156.37 817.89 169 814.04 325.89 456.89 325.89 455.19 156.37"/><polygon class="cls-1" points="456.89 325.89 814.04 325.89 763.33 328.56 418.06 325.89 456.89 325.89"/><polygon class="cls-1" points="418.06 325.89 456.89 325.89 455.19 156.37 416.26 171.96 418.06 325.89"/><polygon class="cls-2" points="455.19 156.37 817.89 169 814.04 325.89 456.89 325.89 455.19 156.37"/><polygon class="cls-3" points="418.06 325.89 456.89 325.89 455.19 156.37 416.26 171.96 418.06 325.89"/><polygon class="cls-4" points="288.53 456.19 634.93 447.15 634.18 566.93 456 576.83 458 909.78 300.39 929.44 288.53 456.19"/><polygon class="cls-1" points="634.93 447.15 586.48 436.04 266.31 444.17 288.53 456.19 634.93 447.15"/><polygon class="cls-1" points="288.53 456.19 266.31 444.17 278.06 877.39 300.39 929.44 288.53 456.19"/><polygon class="cls-4" points="288.53 456.19 634.93 447.15 634.18 566.93 456 576.83 458 909.78 300.39 929.44 288.53 456.19"/><polygon class="cls-5" points="634.93 447.15 586.48 436.04 266.31 444.17 288.53 456.19 634.93 447.15"/><polygon class="cls-6" points="288.53 456.19 266.31 444.17 278.06 877.39 300.39 929.44 288.53 456.19"/><polygon class="cls-7" points="602.96 439.82 433.26 443.97 423.97 440.28 586.48 436.04 602.96 439.82"/></g></g></svg>