<svg xmlns="http://www.w3.org/2000/svg" viewBox="0 0 1080 1080"><defs><style>.cls-1{fill:#f15e35;}.cls-2{fill:#47241c;}.cls-3{fill:#282523;}.cls-4{fill:#1d1b1b;}.cls-5{fill:#2e2b2a;}.cls-6{fill:#1b1b1b;}</style></defs><g id="F6"><g id="_11" data-name="11"><polygon class="cls-1" points="454.24 156.99 813.11 169 809.11 324.89 456.07 325.89 454.24 156.99"/><polygon class="cls-2" points="415.04 323.96 456.07 325.89 454.24 156.99 412.61 170.89 415.04 323.96"/><polygon class="cls-1" points="454.24 156.99 813.11 169 809.11 324.89 456.07 325.89 454.24 156.99"/><polygon class="cls-2" points="415.04 323.96 456.07 325.89 454.24 156.99 412.61 170.89 415.04 323.96"/><polygon class="cls-3" points="288.53 456.19 631.93 445.37 631.89 564.94 454.94 575.17 457.85 905.93 301.11 927 288.53 456.19"/><polygon class="cls-4" points="288.53 456.19 264.11 442.93 276 873.89 301.11 927 288.53 456.19"/><polygon class="cls-3" points="288.53 456.19 631.93 445.37 631.89 564.94 454.94 575.17 457.85 905.93 301.11 927 288.53 456.19"/><polygon class="cls-5" points="631.93 445.37 581.44 433.81 264.11 442.93 288.53 456.19 631.93 445.37"/><polygon class="cls-6" points="599.05 437.84 431.56 442.81 419.22 438.47 581.44 433.81 599.05 437.84"/></g></g></svg>