<svg xmlns="http://www.w3.org/2000/svg" viewBox="0 0 1080 1080"><defs><style>.cls-1{fill:#f15f36;}.cls-2{fill:#46231b;}.cls-3{fill:#272422;}.cls-4{fill:#1b1b1b;}.cls-5{fill:#2f2c2b;}.cls-6{fill:#1d1b1b;}</style></defs><g id="F6"><g id="_12" data-name="12"><polygon class="cls-1" points="454 156.99 811 169 806.93 324.11 455.3 325.89 454 156.99"/><polygon class="cls-2" points="413.33 323.87 455.3 325.89 454 156.99 411.48 170.26 413.33 323.87"/><polygon class="cls-3" points="288.53 456.19 631.03 445.14 630.94 563.94 454.94 575.17 457.84 904.33 301.11 926 288.53 456.19"/><polygon class="cls-4" points="288.53 456.19 263.19 442.41 275 873.59 301.11 926 288.53 456.19"/><polygon class="cls-5" points="631.03 445.14 580.39 432.89 263.19 442.41 288.53 456.19 631.03 445.14"/><polygon class="cls-6" points="600.22 437.69 430.5 442.64 417.92 437.76 580.39 432.89 600.22 437.69"/></g></g></svg>