<svg xmlns="http://www.w3.org/2000/svg" viewBox="0 0 1080 1080"><defs><style>.cls-1{fill:#f15e35;}.cls-2{fill:#452119;}.cls-3{fill:#24211f;}.cls-4{fill:#19181a;}.cls-5{fill:#2d2a28;}.cls-6{fill:#1b1a1a;}</style></defs><g id="F6"><g id="_14" data-name="14"><polygon class="cls-1" points="450.74 156.26 783.96 167.67 780.39 320.26 452.56 325.89 450.74 156.26"/><polygon class="cls-2" points="392.89 320.44 452.56 325.89 450.74 156.26 390.78 165.89 392.89 320.44"/><polygon class="cls-3" points="291.22 459.3 617.89 439.96 617 557.07 451.37 572.85 454.85 897.74 305.37 928.7 291.22 459.3"/><polygon class="cls-4" points="291.22 459.3 247 442.37 262.11 874.63 305.37 928.7 291.22 459.3"/><polygon class="cls-5" points="617.89 439.96 553.07 426.33 247 442.37 291.22 459.3 617.89 439.96"/><polygon class="cls-6" points="577.83 431.79 419.37 439.96 399.44 434.38 553.07 426.33 577.83 431.79"/></g></g></svg>