<svg xmlns="http://www.w3.org/2000/svg" viewBox="0 0 1080 1080"><defs><style>.cls-1{fill:#f2613a;}.cls-2{fill:#42241f;}.cls-3{fill:#2b2725;}.cls-4{fill:#47241d;}.cls-5{fill:#322f2d;}.cls-6{fill:#222323;}</style></defs><g id="F6"><g id="_7" data-name="7"><polygon class="cls-1" points="456.85 156.11 838.85 168.19 836.11 330.11 458.11 325.94 456.85 156.11"/><polygon class="cls-2" points="458.11 325.94 836.11 330.11 779.33 335.56 434.56 332.11 458.11 325.94"/><polygon class="cls-3" points="285.67 454 645.67 451.44 644.89 576.11 457.74 580.55 458.78 925.05 293.83 937.78 285.67 454"/><polygon class="cls-4" points="434.56 332.11 458.11 325.94 456.85 156.11 433.96 178.56 434.56 332.11"/><polygon class="cls-5" points="645.67 451.44 608.11 446.63 279.22 449 285.67 454 645.67 451.44"/><polygon class="cls-6" points="285.67 454 279.22 449 286.78 891.56 293.83 937.78 285.67 454"/></g></g></svg>